<mxfile host="65bd71144e">
    <diagram id="V8QEZqY1kmJIcm4RPAO6" name="Page-1">
        <mxGraphModel dx="1610" dy="1418" grid="1" gridSize="10" guides="1" tooltips="1" connect="1" arrows="1" fold="1" page="0" pageScale="1" pageWidth="850" pageHeight="1100" math="0" shadow="0">
            <root>
                <mxCell id="0"/>
                <mxCell id="1" parent="0"/>
                <mxCell id="65" style="edgeStyle=none;html=1;fontFamily=Helvetica;fontSize=20;startArrow=none;startFill=0;endArrow=classic;endFill=1;exitX=0.663;exitY=0.032;exitDx=0;exitDy=0;exitPerimeter=0;" edge="1" parent="1" source="2" target="6">
                    <mxGeometry relative="1" as="geometry">
                        <mxPoint x="590" y="20" as="sourcePoint"/>
                        <Array as="points">
                            <mxPoint x="620" y="40"/>
                            <mxPoint x="620" y="-120"/>
                            <mxPoint x="620" y="-140"/>
                        </Array>
                    </mxGeometry>
                </mxCell>
                <mxCell id="68" style="edgeStyle=none;html=1;entryX=1;entryY=0.125;entryDx=0;entryDy=0;entryPerimeter=0;fontFamily=Helvetica;fontSize=20;startArrow=none;startFill=0;endArrow=classic;endFill=1;" edge="1" parent="1" target="54">
                    <mxGeometry relative="1" as="geometry">
                        <mxPoint x="510" y="120" as="sourcePoint"/>
                        <Array as="points">
                            <mxPoint x="480" y="120"/>
                            <mxPoint x="300" y="120"/>
                        </Array>
                    </mxGeometry>
                </mxCell>
                <mxCell id="81" style="edgeStyle=none;html=1;entryX=0.389;entryY=0;entryDx=0;entryDy=0;entryPerimeter=0;fontFamily=Helvetica;fontSize=20;startArrow=none;startFill=0;endArrow=classic;endFill=1;exitX=0.391;exitY=0.986;exitDx=0;exitDy=0;exitPerimeter=0;" edge="1" parent="1" source="2" target="4">
                    <mxGeometry relative="1" as="geometry"/>
                </mxCell>
                <mxCell id="2" value="&lt;span style=&quot;font-size: 15px;&quot;&gt;RECIPE&lt;br&gt;MANAGEMENT&lt;br&gt;&lt;/span&gt;" style="ellipse;whiteSpace=wrap;html=1;" vertex="1" parent="1">
                    <mxGeometry x="500" y="60" width="180" height="180" as="geometry"/>
                </mxCell>
                <mxCell id="75" style="edgeStyle=none;html=1;entryX=1;entryY=0.75;entryDx=0;entryDy=0;fontFamily=Helvetica;fontSize=20;startArrow=none;startFill=0;endArrow=classic;endFill=1;exitX=0.289;exitY=0.053;exitDx=0;exitDy=0;exitPerimeter=0;" edge="1" parent="1" source="3" target="6">
                    <mxGeometry relative="1" as="geometry">
                        <Array as="points">
                            <mxPoint x="872" y="-160"/>
                        </Array>
                    </mxGeometry>
                </mxCell>
                <mxCell id="77" style="edgeStyle=none;html=1;entryX=0.463;entryY=1.046;entryDx=0;entryDy=0;entryPerimeter=0;fontFamily=Helvetica;fontSize=20;startArrow=none;startFill=0;endArrow=classic;endFill=1;" edge="1" parent="1" source="3" target="54">
                    <mxGeometry relative="1" as="geometry">
                        <Array as="points">
                            <mxPoint x="910" y="500"/>
                            <mxPoint x="183" y="500"/>
                        </Array>
                    </mxGeometry>
                </mxCell>
                <mxCell id="3" value="&lt;span style=&quot;font-size: 15px;&quot;&gt;RECIPE&lt;br&gt;GENERATION&lt;br&gt;&lt;/span&gt;" style="ellipse;whiteSpace=wrap;html=1;" vertex="1" parent="1">
                    <mxGeometry x="820" y="60" width="180" height="180" as="geometry"/>
                </mxCell>
                <mxCell id="74" style="edgeStyle=none;html=1;entryX=0.727;entryY=0.943;entryDx=0;entryDy=0;fontFamily=Helvetica;fontSize=20;startArrow=none;startFill=0;endArrow=classic;endFill=1;exitX=0.722;exitY=0;exitDx=0;exitDy=0;exitPerimeter=0;entryPerimeter=0;" edge="1" parent="1" source="4" target="2">
                    <mxGeometry relative="1" as="geometry"/>
                </mxCell>
                <mxCell id="83" style="edgeStyle=none;html=1;entryX=0.5;entryY=0;entryDx=0;entryDy=0;fontFamily=Helvetica;fontSize=20;startArrow=none;startFill=0;endArrow=classic;endFill=1;" edge="1" parent="1" source="4" target="6">
                    <mxGeometry relative="1" as="geometry">
                        <Array as="points">
                            <mxPoint x="30" y="560"/>
                            <mxPoint x="30" y="-330"/>
                            <mxPoint x="590" y="-330"/>
                        </Array>
                    </mxGeometry>
                </mxCell>
                <mxCell id="4" value="ADMIN" style="whiteSpace=wrap;html=1;fontSize=15;" vertex="1" parent="1">
                    <mxGeometry x="500" y="520" width="180" height="80" as="geometry"/>
                </mxCell>
                <mxCell id="63" style="edgeStyle=none;html=1;entryX=0.335;entryY=0.029;entryDx=0;entryDy=0;fontFamily=Helvetica;fontSize=20;startArrow=none;startFill=0;endArrow=classic;endFill=1;exitX=0.338;exitY=1.005;exitDx=0;exitDy=0;exitPerimeter=0;entryPerimeter=0;" edge="1" parent="1" source="6" target="2">
                    <mxGeometry relative="1" as="geometry">
                        <Array as="points">
                            <mxPoint x="560" y="-120"/>
                            <mxPoint x="560" y="40"/>
                        </Array>
                    </mxGeometry>
                </mxCell>
                <mxCell id="72" style="edgeStyle=none;html=1;fontFamily=Helvetica;fontSize=20;startArrow=none;startFill=0;endArrow=classic;endFill=1;exitX=1;exitY=0.25;exitDx=0;exitDy=0;entryX=0.616;entryY=0.019;entryDx=0;entryDy=0;entryPerimeter=0;" edge="1" parent="1" source="6" target="3">
                    <mxGeometry relative="1" as="geometry">
                        <Array as="points">
                            <mxPoint x="930" y="-200"/>
                        </Array>
                    </mxGeometry>
                </mxCell>
                <mxCell id="79" style="edgeStyle=none;html=1;entryX=0.981;entryY=0.622;entryDx=0;entryDy=0;entryPerimeter=0;fontFamily=Helvetica;fontSize=20;startArrow=none;startFill=0;endArrow=classic;endFill=1;exitX=0;exitY=0.75;exitDx=0;exitDy=0;" edge="1" parent="1" source="6" target="55">
                    <mxGeometry relative="1" as="geometry"/>
                </mxCell>
                <mxCell id="6" value="USER" style="whiteSpace=wrap;html=1;fontSize=15;" vertex="1" parent="1">
                    <mxGeometry x="500" y="-220" width="180" height="80" as="geometry"/>
                </mxCell>
                <mxCell id="69" style="edgeStyle=none;html=1;fontFamily=Helvetica;fontSize=20;startArrow=none;startFill=0;endArrow=classic;endFill=1;entryX=0.035;entryY=0.666;entryDx=0;entryDy=0;exitX=1;exitY=0.875;exitDx=0;exitDy=0;exitPerimeter=0;entryPerimeter=0;" edge="1" parent="1" source="54" target="2">
                    <mxGeometry relative="1" as="geometry">
                        <Array as="points">
                            <mxPoint x="300" y="180"/>
                            <mxPoint x="480" y="180"/>
                        </Array>
                    </mxGeometry>
                </mxCell>
                <mxCell id="54" value="&lt;span style=&quot;font-size: 20px;&quot;&gt;DATABASE&lt;/span&gt;" style="html=1;rounded=0;shadow=0;comic=0;labelBackgroundColor=none;strokeWidth=2;fontFamily=Helvetica;fontSize=12;align=center;shape=mxgraph.ios7ui.horLines;" vertex="1" parent="1">
                    <mxGeometry x="100" y="110" width="180" height="80" as="geometry"/>
                </mxCell>
                <mxCell id="56" style="edgeStyle=none;html=1;entryX=0;entryY=0.25;entryDx=0;entryDy=0;fontFamily=Helvetica;fontSize=20;startArrow=classic;startFill=1;endArrow=none;endFill=0;exitX=0.996;exitY=0.386;exitDx=0;exitDy=0;exitPerimeter=0;" edge="1" parent="1" source="55" target="6">
                    <mxGeometry relative="1" as="geometry">
                        <Array as="points">
                            <mxPoint x="300" y="-200"/>
                        </Array>
                    </mxGeometry>
                </mxCell>
                <mxCell id="61" style="edgeStyle=none;html=1;fontFamily=Helvetica;fontSize=20;startArrow=classic;startFill=1;endArrow=classic;endFill=1;" edge="1" parent="1" source="55" target="54">
                    <mxGeometry relative="1" as="geometry"/>
                </mxCell>
                <mxCell id="55" value="USER&lt;br&gt;AUTHENTICATION" style="ellipse;whiteSpace=wrap;html=1;fontSize=15;" vertex="1" parent="1">
                    <mxGeometry x="100" y="-270" width="180" height="180" as="geometry"/>
                </mxCell>
                <mxCell id="58" value="Login / Signup" style="text;strokeColor=none;align=center;fillColor=none;html=1;verticalAlign=middle;whiteSpace=wrap;rounded=0;fontFamily=Helvetica;fontSize=20;" vertex="1" parent="1">
                    <mxGeometry x="320" y="-250" width="150" height="30" as="geometry"/>
                </mxCell>
                <mxCell id="60" value="Logout" style="text;strokeColor=none;align=center;fillColor=none;html=1;verticalAlign=middle;whiteSpace=wrap;rounded=0;fontFamily=Helvetica;fontSize=20;" vertex="1" parent="1">
                    <mxGeometry x="360" y="-140" width="60" height="30" as="geometry"/>
                </mxCell>
                <mxCell id="62" value="User Credentials" style="text;strokeColor=none;align=center;fillColor=none;html=1;verticalAlign=middle;whiteSpace=wrap;rounded=0;fontFamily=Helvetica;fontSize=20;rotation=90;" vertex="1" parent="1">
                    <mxGeometry x="120" y="-10" width="170" height="30" as="geometry"/>
                </mxCell>
                <mxCell id="66" value="Share Recipe" style="text;strokeColor=none;align=center;fillColor=none;html=1;verticalAlign=middle;whiteSpace=wrap;rounded=0;fontFamily=Helvetica;fontSize=20;rotation=-90;" vertex="1" parent="1">
                    <mxGeometry x="470" y="-50" width="140" height="30" as="geometry"/>
                </mxCell>
                <mxCell id="67" value="Recipe Details" style="text;strokeColor=none;align=center;fillColor=none;html=1;verticalAlign=middle;whiteSpace=wrap;rounded=0;fontFamily=Helvetica;fontSize=20;rotation=90;" vertex="1" parent="1">
                    <mxGeometry x="570" y="-50" width="140" height="30" as="geometry"/>
                </mxCell>
                <mxCell id="70" value="Add Recipe" style="text;strokeColor=none;align=center;fillColor=none;html=1;verticalAlign=middle;whiteSpace=wrap;rounded=0;fontFamily=Helvetica;fontSize=20;" vertex="1" parent="1">
                    <mxGeometry x="330" y="90" width="120" height="30" as="geometry"/>
                </mxCell>
                <mxCell id="71" value="Retrieve Recipe" style="text;strokeColor=none;align=center;fillColor=none;html=1;verticalAlign=middle;whiteSpace=wrap;rounded=0;fontFamily=Helvetica;fontSize=20;" vertex="1" parent="1">
                    <mxGeometry x="315" y="180" width="150" height="30" as="geometry"/>
                </mxCell>
                <mxCell id="73" value="Provide Ingredients" style="text;strokeColor=none;align=center;fillColor=none;html=1;verticalAlign=middle;whiteSpace=wrap;rounded=0;fontFamily=Helvetica;fontSize=20;rotation=90;" vertex="1" parent="1">
                    <mxGeometry x="840" y="-70" width="220" height="30" as="geometry"/>
                </mxCell>
                <mxCell id="76" value="Generated Recipe" style="text;strokeColor=none;align=center;fillColor=none;html=1;verticalAlign=middle;whiteSpace=wrap;rounded=0;fontFamily=Helvetica;fontSize=20;rotation=-90;" vertex="1" parent="1">
                    <mxGeometry x="760" y="-70" width="180" height="30" as="geometry"/>
                </mxCell>
                <mxCell id="78" value="Recipe Data" style="text;strokeColor=none;align=center;fillColor=none;html=1;verticalAlign=middle;whiteSpace=wrap;rounded=0;fontFamily=Helvetica;fontSize=20;rotation=90;" vertex="1" parent="1">
                    <mxGeometry x="110" y="250" width="190" height="30" as="geometry"/>
                </mxCell>
                <mxCell id="80" value="Delete Recipe" style="text;strokeColor=none;align=center;fillColor=none;html=1;verticalAlign=middle;whiteSpace=wrap;rounded=0;fontFamily=Helvetica;fontSize=20;rotation=90;" vertex="1" parent="1">
                    <mxGeometry x="590" y="360" width="130" height="30" as="geometry"/>
                </mxCell>
                <mxCell id="82" value="Approve / Reject Recipe" style="text;strokeColor=none;align=center;fillColor=none;html=1;verticalAlign=middle;whiteSpace=wrap;rounded=0;fontFamily=Helvetica;fontSize=20;rotation=90;" vertex="1" parent="1">
                    <mxGeometry x="440" y="360" width="220" height="30" as="geometry"/>
                </mxCell>
                <mxCell id="84" value="Delete USer" style="text;strokeColor=none;align=center;fillColor=none;html=1;verticalAlign=middle;whiteSpace=wrap;rounded=0;fontFamily=Helvetica;fontSize=20;rotation=-90;" vertex="1" parent="1">
                    <mxGeometry x="-60" y="90" width="140" height="30" as="geometry"/>
                </mxCell>
            </root>
        </mxGraphModel>
    </diagram>
</mxfile>